<?xml version="1.0" encoding="UTF-8" standalone="no"?>
<!DOCTYPE svg PUBLIC "-//W3C//DTD SVG 1.1//EN" "http://www.w3.org/Graphics/SVG/1.1/DTD/svg11.dtd">
<svg width="100%" height="100%" viewBox="0 0 2000 2000" version="1.1" xmlns="http://www.w3.org/2000/svg" xmlns:xlink="http://www.w3.org/1999/xlink" xml:space="preserve" xmlns:serif="http://www.serif.com/" style="fill-rule:evenodd;clip-rule:evenodd;stroke-linejoin:round;stroke-miterlimit:2;">
    <g id="Recource">
        <g transform="matrix(1.35704,0,0,1.32826,-438.027,-314.947)">
            <text x="334.14px" y="1600.48px" style="font-family:'BremenBT-Bold', 'Bremen Bd BT', fantasy;font-size:1781.4px;">F</text>
        </g>
        <g transform="matrix(-2.01047,0,0,1.96783,5167.55,-570.477)">
            <text x="1660.86px" y="1042.07px" style="font-family:'BremenBT-Bold', 'Bremen Bd BT', fantasy;font-size:713.023px;">C</text>
        </g>
    </g>
    <path d="M1307.94,192.268L1217.05,377.125C1163.54,374.044 1107.67,371.733 1049.43,370.193C991.202,368.652 928.641,367.882 861.753,367.882C811.39,367.882 773.814,368.075 749.026,368.46C724.238,368.845 701.22,369.422 679.973,370.193L668.169,932.849C723.254,895.878 779.913,856.404 838.145,814.426C896.377,772.448 957.364,726.811 1021.11,677.516C1065.17,734.514 1110.22,789.393 1156.26,842.154C1202.29,894.915 1249.71,945.558 1298.5,994.083C1233.97,1039.53 1173.96,1083.43 1118.49,1125.79C1063.01,1168.16 1011.27,1210.52 963.266,1252.88C920.772,1204.36 875.13,1155.26 826.341,1105.58C777.552,1055.89 724.828,1004.87 668.169,952.49C668.169,1093.44 672.104,1235.36 679.973,1378.24C687.843,1521.12 699.646,1665.34 715.385,1810.92C677.613,1808.61 639.84,1806.87 602.068,1805.72C564.296,1804.56 526.523,1803.99 488.751,1803.99C451.765,1803.99 415.567,1804.56 380.155,1805.72C344.744,1806.87 309.726,1808.61 275.101,1810.92L197.196,1742.75C203.491,1606.42 208.213,1476.63 211.36,1353.4C214.508,1230.16 216.082,1111.16 216.082,996.394C216.082,881.629 214.508,764.168 211.36,644.011C208.213,523.855 203.491,399.462 197.196,270.832L279.823,192.268C376.614,196.12 466.717,199.008 550.131,200.934C633.545,202.859 713.811,203.822 790.93,203.822C869.622,203.822 951.659,202.859 1037.04,200.934C1122.42,199.008 1212.72,196.12 1307.94,192.268ZM1000.38,1286.94L1161.37,1479.46C1176.77,1482.2 1192.99,1484.14 1210.02,1485.28C1227.05,1486.42 1246.77,1487 1269.17,1487C1425.49,1487 1549.85,1444.29 1642.24,1358.88C1734.64,1273.47 1780.84,1158.14 1780.84,1012.9C1780.84,865.37 1731.84,745.703 1633.84,653.898C1535.85,562.093 1407.76,516.19 1249.57,516.19C1222.5,516.19 1197.42,517.104 1174.32,518.931C1151.22,520.758 1129.41,523.498 1108.88,527.152L1037.48,642.251C1067.35,637.684 1093.94,634.258 1117.28,631.974C1140.61,629.691 1161.61,628.549 1180.27,628.549C1283.87,628.549 1363.31,655.268 1418.61,708.707C1473.9,762.146 1501.55,838.65 1501.55,938.22C1501.55,1047.84 1466.09,1134.51 1395.16,1198.22C1324.23,1261.94 1227.4,1293.79 1104.68,1293.79C1091.14,1293.79 1075.86,1293.22 1058.83,1292.08C1041.8,1290.94 1022.32,1289.23 1000.38,1286.94Z" style="fill:rgb(96,146,198);fill-rule:nonzero;"/>
</svg>
